<svg xmlns="http://www.w3.org/2000/svg" xmlns:xlink="http://www.w3.org/1999/xlink" version="1.1" x="0px" y="0px" viewBox="0 0 100 125" style="enable-background:new 0 0 100 100;" xml:space="preserve"><path d="M89.0595703,75.2890625c-2.0322266,0-3.0957031,1.03125-3.9501953,1.859375  c-0.7753906,0.7519531-1.3359375,1.2954102-2.5576172,1.2954102s-1.7822266-0.543457-2.5576172-1.2954102  c-0.8544922-0.828125-1.9179688-1.859375-3.9501953-1.859375c-2.03125,0-3.09375,1.03125-3.9472656,1.859375  c-0.7753906,0.7519531-1.3349609,1.2954102-2.5556641,1.2954102c-1.2177734,0-1.7773438-0.5429688-2.5517578-1.2944336  c-0.8525391-0.8291016-1.9150391-1.8603516-3.9453125-1.8603516s-3.0927734,1.03125-3.9462891,1.8598633  c-0.7744141,0.7514648-1.3349609,1.2949219-2.5546875,1.2949219c-1.21875,0-1.7783203-0.5429688-2.5527344-1.2949219  c-0.8535156-0.8286133-1.9160156-1.8598633-3.9462891-1.8598633s-3.0927734,1.03125-3.9462891,1.8598633  c-0.7744141,0.7519531-1.3339844,1.2949219-2.5527344,1.2949219c-1.2197266,0-1.7792969-0.5429688-2.5537109-1.2949219  c-0.8535156-0.8286133-1.9150391-1.8598633-3.9453125-1.8598633c-2.0292969,0-3.0917969,1.03125-3.9443359,1.8598633  c-0.7744141,0.7519531-1.3330078,1.2949219-2.5517578,1.2949219c-1.2177734,0-1.7763672-0.5429688-2.5498047-1.2949219  c-0.8535156-0.8286133-1.9150391-1.8598633-3.9433594-1.8598633c-2.0302734,0-3.0927734,1.03125-3.9462891,1.8598633  c-0.7744141,0.7519531-1.3339844,1.2949219-2.5527344,1.2949219s-1.7783203-0.5429688-2.5527344-1.2949219  c-0.8535156-0.8286133-1.9150391-1.8598633-3.9453125-1.8598633c-0.5527344,0-1,0.4477539-1,1s0.4472656,1,1,1  c1.21875,0,1.7783203,0.5429688,2.5527344,1.2949219c0.8535156,0.8286133,1.9150391,1.8598633,3.9453125,1.8598633  s3.0917969-1.03125,3.9453125-1.8598633c0.7744141-0.7519531,1.3339844-1.2949219,2.5537109-1.2949219  c1.2167969,0,1.7753906,0.5429688,2.5488281,1.2944336c0.8535156,0.8286133,1.9150391,1.8603516,3.9443359,1.8603516  s3.0917969-1.03125,3.9443359-1.8598633c0.7744141-0.7519531,1.3330078-1.2949219,2.5517578-1.2949219  s1.7783203,0.5429688,2.5527344,1.2949219c0.8535156,0.8286133,1.9160156,1.8598633,3.9462891,1.8598633  s3.0917969-1.03125,3.9453125-1.8598633c0.7744141-0.7519531,1.3339844-1.2949219,2.5537109-1.2949219  s1.7792969,0.5429688,2.5537109,1.2949219c0.8535156,0.8286133,1.9150391,1.8598633,3.9453125,1.8598633  c2.03125,0,3.09375-1.03125,3.9472656-1.8598633c0.7744141-0.7519531,1.3339844-1.2949219,2.5537109-1.2949219  c1.21875,0,1.7783203,0.5429688,2.5527344,1.2949219c0.8525391,0.8286133,1.9150391,1.8598633,3.9443359,1.8598633  c2.03125,0,3.0947266-1.03125,3.9482422-1.8598633c0.7753906-0.7519531,1.3349609-1.2949219,2.5546875-1.2949219  c1.2216797,0,1.7822266,0.543457,2.5576172,1.2954102c0.8544922,0.828125,1.9179688,1.859375,3.9501953,1.859375  s3.0957031-1.03125,3.9501953-1.859375c0.7753906-0.7519531,1.3359375-1.2954102,2.5576172-1.2954102c0.5527344,0,1-0.4477539,1-1  S89.6123047,75.2890625,89.0595703,75.2890625z"/><path d="M89.0595703,84.6015625c-2.0322266,0-3.0957031,1.03125-3.9501953,1.859375  c-0.7753906,0.7519531-1.3359375,1.2954102-2.5576172,1.2954102s-1.7822266-0.543457-2.5576172-1.2954102  c-0.8544922-0.828125-1.9179688-1.859375-3.9501953-1.859375c-2.03125,0-3.09375,1.03125-3.9472656,1.859375  c-0.7753906,0.7519531-1.3349609,1.2954102-2.5556641,1.2954102c-1.2177734,0-1.7773438-0.5429688-2.5517578-1.2944336  c-0.8525391-0.8291016-1.9150391-1.8603516-3.9453125-1.8603516s-3.0927734,1.03125-3.9462891,1.8598633  c-0.7744141,0.7514648-1.3349609,1.2949219-2.5546875,1.2949219c-1.21875,0-1.7783203-0.5429688-2.5527344-1.2949219  c-0.8535156-0.8286133-1.9160156-1.8598633-3.9462891-1.8598633s-3.0927734,1.03125-3.9462891,1.8598633  c-0.7744141,0.7519531-1.3339844,1.2949219-2.5527344,1.2949219c-1.2197266,0-1.7792969-0.5429688-2.5537109-1.2949219  c-0.8535156-0.8286133-1.9150391-1.8598633-3.9453125-1.8598633c-2.0292969,0-3.0917969,1.03125-3.9443359,1.8598633  c-0.7744141,0.7519531-1.3330078,1.2949219-2.5517578,1.2949219c-1.2177734,0-1.7763672-0.5429688-2.5498047-1.2949219  c-0.8535156-0.8286133-1.9150391-1.8598633-3.9433594-1.8598633c-2.0302734,0-3.0927734,1.03125-3.9462891,1.8598633  c-0.7744141,0.7519531-1.3339844,1.2949219-2.5527344,1.2949219s-1.7783203-0.5429688-2.5527344-1.2949219  c-0.8535156-0.8286133-1.9150391-1.8598633-3.9453125-1.8598633c-0.5527344,0-1,0.4477539-1,1s0.4472656,1,1,1  c1.21875,0,1.7783203,0.5429688,2.5527344,1.2949219c0.8535156,0.8286133,1.9150391,1.8598633,3.9453125,1.8598633  s3.0917969-1.03125,3.9453125-1.8598633c0.7744141-0.7519531,1.3339844-1.2949219,2.5537109-1.2949219  c1.2167969,0,1.7753906,0.5429688,2.5488281,1.2944336c0.8535156,0.8286133,1.9150391,1.8603516,3.9443359,1.8603516  s3.0917969-1.03125,3.9443359-1.8598633c0.7744141-0.7519531,1.3330078-1.2949219,2.5517578-1.2949219  s1.7783203,0.5429688,2.5527344,1.2949219c0.8535156,0.8286133,1.9160156,1.8598633,3.9462891,1.8598633  s3.0917969-1.03125,3.9453125-1.8598633c0.7744141-0.7519531,1.3339844-1.2949219,2.5537109-1.2949219  s1.7792969,0.5429688,2.5537109,1.2949219c0.8535156,0.8286133,1.9150391,1.8598633,3.9453125,1.8598633  c2.03125,0,3.09375-1.03125,3.9472656-1.8598633c0.7744141-0.7519531,1.3339844-1.2949219,2.5537109-1.2949219  c1.21875,0,1.7783203,0.5429688,2.5527344,1.2949219c0.8525391,0.8286133,1.9150391,1.8598633,3.9443359,1.8598633  c2.03125,0,3.0947266-1.03125,3.9482422-1.8598633c0.7753906-0.7519531,1.3349609-1.2949219,2.5546875-1.2949219  c1.2216797,0,1.7822266,0.543457,2.5576172,1.2954102c0.8544922,0.828125,1.9179688,1.859375,3.9501953,1.859375  s3.0957031-1.03125,3.9501953-1.859375c0.7753906-0.7519531,1.3359375-1.2954102,2.5576172-1.2954102c0.5527344,0,1-0.4477539,1-1  S89.6123047,84.6015625,89.0595703,84.6015625z"/><path d="M50.0498047,55.0820312c8.9951172,0,16.3134766-7.3154297,16.3134766-16.3071289  c0-8.9921875-7.3183594-16.3076172-16.3134766-16.3076172s-16.3125,7.3154297-16.3125,16.3076172  C33.7373047,47.7666016,41.0546875,55.0820312,50.0498047,55.0820312z M50.0498047,24.4672852  c7.8925781,0,14.3134766,6.418457,14.3134766,14.3076172s-6.4208984,14.3071289-14.3134766,14.3071289  c-7.8916016,0-14.3125-6.4179688-14.3125-14.3071289S42.1582031,24.4672852,50.0498047,24.4672852z"/><path d="M50.1035156,18.6308594c0.5527344,0,1-0.4477539,1-1v-6.875c0-0.5522461-0.4472656-1-1-1s-1,0.4477539-1,1v6.875  C49.1035156,18.1831055,49.5507812,18.6308594,50.1035156,18.6308594z"/><path d="M60.1679688,21.3564453c0.1572266,0.0908203,0.3291016,0.1337891,0.4990234,0.1337891  c0.3457031,0,0.6816406-0.1791992,0.8671875-0.5l3.4375-5.9541016c0.2763672-0.4785156,0.1123047-1.0898438-0.3662109-1.3662109  c-0.4775391-0.2758789-1.0898438-0.1123047-1.3662109,0.3662109l-3.4375,5.9541016  C59.5253906,20.46875,59.6894531,21.0800781,60.1679688,21.3564453z"/><path d="M68.3886719,29.2490234c0.1699219,0,0.3417969-0.0429688,0.4990234-0.1337891l5.9541016-3.4375  c0.4785156-0.2763672,0.6425781-0.8876953,0.3662109-1.3662109c-0.2773438-0.4794922-0.8896484-0.6420898-1.3662109-0.3662109  l-5.9541016,3.4375c-0.4785156,0.2763672-0.6425781,0.8876953-0.3662109,1.3662109  C67.7070312,29.0698242,68.0429688,29.2490234,68.3886719,29.2490234z"/><path d="M70.1943359,38.8276367c0,0.5522461,0.4472656,1,1,1h6.875c0.5527344,0,1-0.4477539,1-1s-0.4472656-1-1-1h-6.875  C70.6416016,37.8276367,70.1943359,38.2753906,70.1943359,38.8276367z"/><path d="M67.8349609,50.2587891l5.9541016,3.4375c0.1572266,0.0908203,0.3291016,0.1337891,0.4990234,0.1337891  c0.3457031,0,0.6816406-0.1791992,0.8671875-0.5c0.2763672-0.4785156,0.1123047-1.0898438-0.3662109-1.3662109l-5.9541016-3.4375  c-0.4775391-0.2758789-1.0898438-0.1132812-1.3662109,0.3662109C67.1923828,49.3710938,67.3564453,49.9824219,67.8349609,50.2587891  z"/><path d="M60.0761719,56.2460938c-0.4785156,0.2763672-0.6425781,0.8876953-0.3662109,1.3662109l3.4375,5.9541016  c0.1855469,0.3208008,0.5214844,0.5,0.8671875,0.5c0.1699219,0,0.3417969-0.0429688,0.4990234-0.1337891  c0.4785156-0.2763672,0.6425781-0.8876953,0.3662109-1.3662109l-3.4375-5.9541016  C61.1650391,56.1328125,60.5527344,55.9702148,60.0761719,56.2460938z"/><path d="M48.9970703,59.918457v6.875c0,0.5522461,0.4472656,1,1,1s1-0.4477539,1-1v-6.875c0-0.5522461-0.4472656-1-1-1  S48.9970703,59.3662109,48.9970703,59.918457z"/><path d="M38.5664062,56.5595703l-3.4375,5.9536133c-0.2763672,0.4780273-0.1123047,1.0898438,0.3662109,1.3662109  c0.1572266,0.0908203,0.3291016,0.1337891,0.4990234,0.1337891c0.3457031,0,0.6816406-0.1791992,0.8671875-0.5l3.4375-5.9536133  c0.2763672-0.4780273,0.1123047-1.0898438-0.3662109-1.3662109C39.4550781,55.9169922,38.8427734,56.0805664,38.5664062,56.5595703z  "/><path d="M31.2128906,48.4345703l-5.9541016,3.4375c-0.4785156,0.2763672-0.6425781,0.8876953-0.3662109,1.3662109  c0.1855469,0.3208008,0.5214844,0.5,0.8671875,0.5c0.1699219,0,0.3417969-0.0429688,0.4990234-0.1337891l5.9541016-3.4375  c0.4785156-0.2763672,0.6425781-0.8876953,0.3662109-1.3662109C32.3017578,48.3212891,31.6894531,48.1586914,31.2128906,48.4345703z  "/><path d="M22.03125,39.7216797h6.875c0.5527344,0,1-0.4477539,1-1s-0.4472656-1-1-1h-6.875c-0.5527344,0-1,0.4477539-1,1  S21.4785156,39.7216797,22.03125,39.7216797z"/><path d="M25.3115234,25.5859375l5.9541016,3.4375c0.1572266,0.0908203,0.3291016,0.1337891,0.4990234,0.1337891  c0.3457031,0,0.6816406-0.1791992,0.8671875-0.5c0.2763672-0.4785156,0.1123047-1.0898438-0.3662109-1.3662109l-5.9541016-3.4375  c-0.4775391-0.2758789-1.0898438-0.1132812-1.3662109,0.3662109C24.6689453,24.6982422,24.8330078,25.3095703,25.3115234,25.5859375  z"/><path d="M38.6582031,20.9375c0.1855469,0.3208008,0.5214844,0.5,0.8671875,0.5c0.1699219,0,0.3417969-0.0429688,0.4990234-0.1337891  c0.4785156-0.2763672,0.6425781-0.8876953,0.3662109-1.3662109l-3.4375-5.9541016  c-0.2773438-0.4785156-0.8896484-0.6425781-1.3662109-0.3662109c-0.4785156,0.2763672-0.6425781,0.8876953-0.3662109,1.3662109  L38.6582031,20.9375z"/></svg>