<svg xmlns="http://www.w3.org/2000/svg" xmlns:xlink="http://www.w3.org/1999/xlink" version="1.1" x="0px" y="0px" viewBox="0 0 99 123.75" style="enable-background:new 0 0 99 99;" xml:space="preserve"><g><path d="M96.4,23.9C86.6,12.1,43.2,10,35,10.1c-3.1,0-6.4,1-9.4,2.8c-3,1.8-5.5,4.3-7,7c-5.3,9.4-22.5,47-17.1,60.7   c1.1,2.7,2.9,4.5,5.4,5.3c0.6,0.2,1.3,0.3,1.9,0.4c0.2,0,0.4,0,0.6,0c1.5,0,3-0.4,4.5-1.3c5.5-3.3,10-12.7,14.7-22.7   c5.7-12.1,10.3-19.3,13.7-21.3c3.6-2.1,12.1-2.8,26.1-2.1c10.8,0.6,21,1.1,26.4-2.1c2.2-1.3,3.5-3.1,3.9-5.4   C99.1,28.7,98.4,26.2,96.4,23.9z M68.4,35.9c-1.7-0.1-3.2-0.2-4.7-0.2c2.6-6.3,4.3-12.9,5-19.7c10.6,1.9,21.5,4.9,25.5,9.7   c1.3,1.6,1.8,3.3,1.5,5.1c-0.3,1.4-1.1,2.6-2.6,3.4C88.6,37,78.8,36.5,68.4,35.9z M40.7,38.4c-2.7,1.6-5.9,5.7-9.6,12.2   c-7.1-1.3-13.8-3.7-20.2-7.2c2.7-6.9,5.6-13.3,8-18.1l10.3,3.1c0.6,0.2,1.3,0.2,1.9,0.2c3.2,0,6.3-2.1,7.4-5.3l3.1-10.2   c1.8,0.1,3.7,0.2,5.7,0.3c3,0.2,8.2,0.7,14.2,1.5c-0.7,7.2-2.5,14.2-5.4,20.8C48.6,35.8,43.6,36.7,40.7,38.4z M8.9,48.9   c0.5-1.4,1-2.7,1.5-4c6.3,3.4,13,5.8,20,7.2c-0.6,1.2-1.3,2.4-1.9,3.7C21.6,54.5,15,52.2,8.9,48.9z M27.7,57.2   c-0.6,1.2-1.2,2.5-1.8,3.8c-4.5,9.6-8.8,18.6-13.6,21.4c-1.5,0.9-3.1,1.1-4.6,0.7c-1.6-0.5-2.8-1.7-3.6-3.6   C1.9,73.6,4.4,62,8.4,50.4C14.5,53.6,21,55.8,27.7,57.2z M21.4,20.7l8,2.4c0.3,0.1,0.6,0.1,0.9,0.1c1.6,0,3.2-1.1,3.8-2.6l2.3-7.6   c1.1,0,2.4,0,3.7,0.1l-2.9,9.8C36,26,32.7,27.8,29.6,27l-10-3c0.5-1,1-1.9,1.5-2.8C21.2,21.1,21.3,20.9,21.4,20.7z M22.3,19.5   c1.3-1.6,2.9-3,4.8-4.1c2.5-1.5,5.1-2.3,7.6-2.3l-2.1,7.1c-0.4,1.1-1.8,1.8-2.8,1.6L22.3,19.5z M63,15.1c1.4,0.2,2.8,0.4,4.2,0.7   c-0.7,6.9-2.4,13.6-5.1,19.9c-1.5,0-3,0-4.3,0C60.5,29.1,62.3,22.2,63,15.1z"/><path d="M11.3,75.5c0.7,0,1.4-0.2,2-0.5c2.1-1.1,2.9-3.7,1.7-5.8c-1.1-2.1-3.7-2.9-5.8-1.7c-2.1,1.1-2.9,3.7-1.7,5.8   C8.3,74.7,9.8,75.5,11.3,75.5z M10,68.8c0.4-0.2,0.9-0.3,1.3-0.3c1,0,1.9,0.5,2.4,1.5c0.7,1.3,0.2,3-1.1,3.8   c-1.3,0.7-3,0.2-3.8-1.1C8.1,71.2,8.6,69.5,10,68.8z"/><path d="M81.8,24.5c-2.1,1.1-2.9,3.7-1.7,5.8c0.8,1.4,2.2,2.2,3.8,2.2c0.7,0,1.4-0.2,2-0.5c1-0.5,1.7-1.4,2.1-2.5   c0.3-1.1,0.2-2.2-0.3-3.3C86.5,24.2,83.9,23.4,81.8,24.5z M86.5,29.1c-0.2,0.7-0.7,1.3-1.3,1.6c-1.3,0.7-3,0.2-3.8-1.1   c-0.7-1.3-0.2-3,1.1-3.8c0.4-0.2,0.9-0.3,1.3-0.3c1,0,1.9,0.5,2.4,1.5C86.7,27.6,86.7,28.4,86.5,29.1z"/></g></svg>