<svg xmlns="http://www.w3.org/2000/svg" viewBox="0 0 200 250" x="0px" y="0px"><title>Didgeridoo</title><path d="M177.83,25.33c-.57-1.41-2.3-2.34-3.5-3.23-1.67-1.24-3.49-2.26-5.12-3.54-.36-.29-1,.22-.59.54,1.53,1.28,2.84,2.78,4.34,4.1a15.79,15.79,0,0,0,3.27,2.63A.59.59,0,0,0,176,26q-6.55,6.48-12.8,13.29c-.07-1.84-2.21-3.59-3.35-4.86a41.56,41.56,0,0,0-6-5.28A162.32,162.32,0,0,1,168.64,18a.31.31,0,1,0-.29-.55,87.27,87.27,0,0,0-19.7,14.06.32.32,0,0,0-.38.35,187.26,187.26,0,0,0-13.92,14.62c-10.94,12.62-20.74,26.18-31.45,39a469.21,469.21,0,0,1-37.39,39.71c-6.42,6.08-13,12-19.75,17.7-6.95,5.85-14.61,11-21.22,17.27a.94.94,0,0,0-.09.12c-7.6,3.49,3.88,26.53,15.12,22.31.51-.19.61-1-.06-1-5.29-.17-9.19-2.22-12-6.77-1.93-3.08-5.93-10.87-2.54-13.91l.13-.05c5.73-3.35,10.94-7.66,16.05-12,2.12,2.89,5,5.26,7.38,7.91,2.67,3,5.21,6,7.65,9.2q-6.57,6.72-13.41,13.18c3.53-7.95-7.81-19.83-15.48-19.49-.29,0-.41.4-.11.51,8.05,2.9,15.77,11.69,13.78,20.67,0,0,0,0,0,.06a1.17,1.17,0,0,0,1.85,1.4c24.71-23,46.36-48.95,67.44-75.26C132,79.88,153.7,52.86,176.7,26.74a.55.55,0,0,0,.06-.7l.36.11A.61.61,0,0,0,177.83,25.33ZM158.08,35.47c1.21,1.43,2.5,4.07,4.41,4.52q-1.11,1.21-2.22,2.46a61.38,61.38,0,0,0-10.27-10q1.62-1.47,3.27-2.89C154.92,31.48,156.44,33.55,158.08,35.47Zm-16.67,7.25a2.86,2.86,0,0,1-2.18.35q1.62-1.73,3.25-3.4A3,3,0,0,1,141.41,42.72Zm-3.47,1.76a3.82,3.82,0,0,0,4.69-.52A3.65,3.65,0,0,0,143,39.2q3.07-3.12,6.28-6.05a94.5,94.5,0,0,0,9.56,10.92c-1.84,2-3.65,4.12-5.46,6.2-1.55-.84-3.6.17-4.59,1.46a3.91,3.91,0,0,0-.41,4.37C142,63.63,135.76,71.3,129.61,79c-.63-2.21-3.36-4.09-5.09-5.32a16.77,16.77,0,0,0-7.69-3.23c4.79-6.19,9.57-12.39,14.55-18.42Q134.61,48.14,137.94,44.48Zm11.57,10.24a3.36,3.36,0,0,1,3.11-3.61Q151.06,52.91,149.51,54.72ZM116.27,71.18a59.24,59.24,0,0,1,6.94,3.71,25.25,25.25,0,0,1,3.7,3.15,7.1,7.1,0,0,0,2,1.82L126.45,83c-1-2.12-3.61-3.92-5.33-5.13a17.53,17.53,0,0,0-7.54-3.22ZM92.48,100c1.63,1.88,3.78,3.34,5.56,5.06,1.12,1.08,2.22,2.2,3.24,3.36.89,1,1.53,2.15,2.66,2.8Q96.07,120.93,88,130.51a.37.37,0,0,0,0-.18c-1.18-3.26-3.94-5.94-6.65-8-2.11-1.6-4.57-3.5-7.25-3.08Q83.57,109.89,92.48,100ZM73.34,120c2.84.17,5.92,3.29,7.93,5.06s3.84,4,6,5.79a.44.44,0,0,0,.4.1q-7,8.28-14.16,16.37a3.1,3.1,0,0,0-3.59-.73A3.49,3.49,0,0,0,68.06,149a3.91,3.91,0,0,0,0,1.8,6.88,6.88,0,0,0,.76,1.67q-3.33,3.65-6.72,7.24c-.06-3.17-3.52-7.2-5.27-9.25-2.55-3-5.72-6-9.65-6.76q4.73-4,9.35-8.08a6.66,6.66,0,0,0,2.09,3.1,3.25,3.25,0,0,0,4.27-3.39,3.53,3.53,0,0,0-2.68-3c1.53-1.38,3.06-2.77,4.57-4.18Q69.12,124.14,73.34,120Zm-3.85,30.08a2.48,2.48,0,0,1,.89-2.06,2,2,0,0,1,2.21.32q-1.56,1.74-3.13,3.46C69.44,151.21,69.46,150.59,69.49,150.07ZM58.64,134.48l.06-.07c.71-.6,1.72,0,2.06.73a1.35,1.35,0,0,1-1.07,2c-1.25,0-1.41-1.42-.92-2.28A.23.23,0,0,0,58.64,134.48Zm-16.75,13.7c1-.83,2-1.67,3-2.49.58-.48,1.15-1,1.72-1.46a39.77,39.77,0,0,1,8.69,8.39,35.85,35.85,0,0,1,3.32,5c.73,1.34,1,2.63,2.23,3.43-1.17,1.25-2.36,2.48-3.55,3.71C53.39,158.72,48.24,151.61,41.89,148.18Zm63-38.11c-.65-2.35-3.26-4.75-4.81-6.27-1.9-1.88-4.09-3.9-6.65-4.84,2.35-2.64,4.69-5.29,7-8,4.38-5.12,8.57-10.39,12.72-15.7a76.17,76.17,0,0,1,6.94,4.2c1.84,1.31,3.48,3.56,5.47,4.69q-7.55,9.51-15.08,19Q107.64,106.61,104.84,110.07Zm-42,32.71a2.91,2.91,0,0,0,.47,2.08c1.24,1.65,3.84,1.21,5-.35a3.36,3.36,0,0,0-1.6-4.91,3.19,3.19,0,0,0-4.28,2.7A.45.45,0,0,0,62.81,142.78Zm2.83-1.43a1.54,1.54,0,0,1,1,2,1.36,1.36,0,0,1-2,.48,1.77,1.77,0,0,1-.56-1,1.81,1.81,0,0,1,.16-1.32A1.91,1.91,0,0,1,65.64,141.35Zm79-92.56a2.28,2.28,0,0,0,3.27.37,2.47,2.47,0,0,0,.27-3.35,2.44,2.44,0,0,0-3.63-.23.55.55,0,0,0,.22.93A2.06,2.06,0,0,0,144.61,48.79Zm2.48-2.31a1.35,1.35,0,0,1,.24,1.81,1.27,1.27,0,0,1-1.84.05,1.25,1.25,0,0,1,.2-1.86.32.32,0,0,0,.16-.23A1.61,1.61,0,0,1,147.09,46.48Z"/></svg>