<svg xmlns="http://www.w3.org/2000/svg" xmlns:xlink="http://www.w3.org/1999/xlink" xml:space="preserve" version="1.1" style="shape-rendering:geometricPrecision;text-rendering:geometricPrecision;image-rendering:optimizeQuality;" viewBox="0 0 60000 75000" x="0px" y="0px" fill-rule="evenodd" clip-rule="evenodd"><defs><style type="text/css">
   
    .fil0 {fill:black;fill-rule:nonzero}
   
  </style></defs><g><path class="fil0" d="M30173 56209c-5463,-10582 -1913,-18455 2330,-25314 12,-25 27,-49 44,-71 595,-959 1202,-1898 1800,-2822 862,-1332 1703,-2632 2451,-3912 360,-615 832,-1473 1152,-2121 429,-868 796,-1731 1077,-2590 397,-1217 583,-3473 588,-5768 1,-560 -8,-1121 -28,-1669 -58,602 -124,1215 -198,1821 -260,2126 -616,4184 -1017,5413 -949,2908 -2849,5827 -4868,8928 -3926,6031 -8307,12763 -6718,21262 11,37 22,75 33,112 12,44 17,88 15,131 424,2122 1219,4354 2488,6712 179,333 442,484 664,490 64,2 121,-9 168,-30 36,-17 66,-40 87,-71 62,-91 56,-258 -69,-500zm8644 -49284c-107,-355 -233,-679 -333,-936 -46,-118 -87,-223 -114,-298 -136,333 -254,598 -439,805 -227,254 -505,382 -924,363l0 0c-19,0 -38,-1 -56,-4 -529,-41 -925,-341 -1177,-796 -226,-408 -329,-942 -300,-1514l0 0c0,-18 1,-36 4,-53 40,-585 261,-1108 589,-1482 357,-408 840,-646 1363,-616l12 1c805,41 1405,517 1828,1233 983,1664 1073,6663 1128,8675 192,-320 415,-629 662,-920 783,-923 1819,-1682 2906,-2114 978,-389 2229,-553 3295,-312 924,209 1717,716 2114,1630l0 0c10,22 19,43 28,65l8 19 0 2c224,571 153,1201 -147,1769 -299,565 -831,1070 -1524,1382l-10 5 -5 2c-672,299 -1358,422 -1942,340 -651,-92 -1180,-427 -1455,-1040l-36 -80 0 -5c-176,-439 -147,-793 32,-1140 162,-313 441,-585 800,-920 15,-14 22,-35 21,-56 0,-15 -4,-31 -11,-47 -7,-18 -17,-34 -28,-46 -20,-21 -48,-35 -83,-34 -639,15 -1854,439 -2913,1293 -524,423 -1003,950 -1343,1583 -446,831 -356,952 -406,1916 -84,1633 -271,3103 -574,4033 -160,491 -347,982 -556,1472 266,-180 547,-344 839,-492 1184,-599 2554,-925 3837,-899 1154,24 2487,389 3460,1086 838,601 1420,1444 1432,2529l0 5 1 3 -1 0c14,700 -328,1335 -892,1796 -538,440 -1286,722 -2115,741l-8 2 0 -1c-806,17 -1551,-149 -2106,-482 -609,-365 -995,-919 -1012,-1645 -13,-564 164,-927 507,-1213 297,-248 692,-402 1193,-587 33,-12 55,-38 67,-69 9,-23 14,-46 14,-68 0,-24 -4,-49 -14,-74 -14,-39 -44,-74 -90,-92 -662,-262 -2091,-352 -3540,64 -547,157 -1093,387 -1597,709 -974,622 -1091,998 -1635,1935 -778,1341 -1656,2698 -2556,4089 -254,393 -510,788 -765,1187 568,-280 1188,-490 1831,-629 1412,-307 2944,-275 4288,104 1206,340 2507,1090 3341,2090 715,858 1095,1898 814,3033l0 0c-174,737 -704,1309 -1422,1639 -672,309 -1511,403 -2365,213l-1 0 -46 -11c-855,-201 -1595,-581 -2088,-1082 -536,-545 -788,-1225 -609,-1982 139,-589 419,-918 850,-1121 374,-177 832,-231 1412,-288 51,-5 91,-32 118,-68 16,-22 29,-50 37,-81 9,-32 12,-65 9,-95 -6,-57 -33,-111 -85,-150 -634,-462 -2129,-955 -3786,-913 -1978,50 -2985,385 -3887,1891 -1190,1986 -2291,4062 -3101,6268 803,-550 1742,-959 2737,-1223 1624,-431 3405,-476 4984,-107 1416,331 2964,1130 3982,2245 857,939 1348,2099 1103,3401l0 2 -8 42c-160,849 -735,1529 -1537,1943 -769,397 -1751,547 -2764,358l-3 -1c-998,-188 -1871,-585 -2464,-1136 -627,-582 -949,-1327 -804,-2179l0 -2 8 -42c126,-672 425,-1057 898,-1307 419,-222 946,-308 1613,-405 78,-11 140,-56 180,-116 24,-37 41,-77 51,-119 9,-43 11,-89 4,-136 -12,-83 -56,-162 -137,-216 -774,-513 -2565,-1015 -4514,-876 -941,67 -1913,286 -2815,729 -1071,526 -1018,570 -1288,1677 -1063,4355 -818,9224 2098,14873 279,541 236,998 19,1316 -104,153 -247,269 -415,346 -157,72 -334,107 -518,102 -476,-12 -1016,-292 -1348,-908 -1063,-1977 -1807,-3865 -2286,-5674 -334,-1262 -280,-1723 -946,-2928 -597,-1080 -1423,-1981 -2323,-2707 -1861,-1501 -4015,-2248 -5155,-2274 -146,-3 -268,56 -354,148 -43,47 -79,102 -104,164 -25,60 -38,122 -40,183 -3,112 36,223 126,308 592,554 1052,1001 1309,1497 274,531 311,1076 23,1766l0 3 -36 80c-427,951 -1252,1471 -2269,1614 -951,135 -2074,-70 -3179,-563l-14 -6c-1126,-505 -1988,-1323 -2471,-2237 -500,-944 -600,-1994 -182,-2924l0 0c639,-1470 1923,-2287 3421,-2626 1768,-400 3844,-126 5470,520 1818,723 3549,1993 4860,3537 441,520 835,1072 1170,1645 -53,-2281 295,-4431 904,-6476 327,-1098 309,-1112 -403,-2296 -475,-790 -1100,-1458 -1777,-2004 -1521,-1227 -3278,-1837 -4205,-1859 -99,-2 -181,38 -239,99 -30,32 -54,71 -72,114 -17,41 -27,84 -28,126 -2,74 23,146 82,201 493,461 877,834 1093,1252 245,475 270,961 -9,1584 -363,808 -1062,1249 -1924,1371 -797,113 -1735,-58 -2656,-469l-13 -6c-943,-423 -1665,-1109 -2070,-1875 -422,-797 -505,-1683 -152,-2471l0 0c537,-1235 1613,-1920 2867,-2204 1471,-333 3197,-105 4548,432 1508,600 2945,1653 4032,2934 751,885 1339,1883 1672,2919 982,-2484 2303,-4813 3689,-7035 424,-680 433,-516 54,-1298 -418,-863 -1048,-1574 -1742,-2134 -1290,-1040 -2776,-1558 -3559,-1576 -67,-2 -122,25 -161,67 -21,22 -38,49 -50,80 -12,29 -19,58 -19,87 -1,47 15,94 51,128 426,398 757,720 946,1086 207,400 238,809 29,1320l0 4 -36 80c-319,711 -933,1099 -1690,1206 -671,95 -1456,-41 -2231,-374l-2 0 -80 -36c-818,-367 -1445,-963 -1797,-1628 -368,-696 -441,-1472 -131,-2162l0 0c467,-1074 1402,-1670 2491,-1917 1269,-287 2757,-91 3922,372 1298,516 2534,1423 3469,2524 685,807 1211,1722 1488,2670 302,-469 604,-933 904,-1393 1028,-1580 2025,-3111 2875,-4611 463,-818 515,-767 98,-1614 -380,-772 -947,-1408 -1571,-1912 -1174,-947 -2525,-1418 -3236,-1435 -51,-1 -93,19 -122,50 -16,17 -29,38 -39,63 -9,23 -15,46 -15,67 -1,34 10,68 36,92 392,367 698,663 873,1003 193,374 223,755 31,1230l0 4 -36 80c-297,662 -869,1024 -1572,1123 -642,91 -1396,-46 -2135,-378l0 0c-755,-339 -1335,-889 -1660,-1505 -327,-618 -403,-1303 -157,-1923l0 -1 6 -15c9,-23 19,-46 30,-69l0 0c432,-994 1296,-1545 2303,-1773 1167,-264 2537,-84 3608,342 1193,474 2329,1307 3188,2319 614,723 1089,1541 1349,2391 365,-762 679,-1518 924,-2269 293,-898 564,-2284 789,-3820 135,-918 184,-975 -312,-1840 -335,-584 -789,-1075 -1282,-1473 -1059,-854 -2274,-1279 -2913,-1293 -35,-1 -63,13 -83,34 -11,12 -21,28 -28,46 -7,17 -11,33 -11,47 0,21 6,42 21,56 359,335 638,607 800,920 179,347 208,700 32,1140l0 5 -36 80c-276,614 -804,948 -1455,1040 -585,83 -1271,-41 -1942,-340l-5 -2 -10 -5c-693,-311 -1225,-816 -1524,-1382 -300,-567 -371,-1198 -147,-1769l0 -2 8 -19c9,-22 18,-44 28,-65l0 0c398,-914 1191,-1420 2114,-1630 1066,-242 2317,-77 3295,312 1088,433 2124,1192 2906,2114 347,409 646,852 879,1314 95,-915 171,-1813 222,-2632 70,-1099 171,-1790 -144,-2840zm-147 -1988c153,62 289,171 380,325 -110,-461 -265,-883 -469,-1228 -291,-492 -682,-817 -1183,-842l-14 -1c-266,-15 -521,118 -720,344 -217,248 -364,603 -392,1008l0 2 0 0 -1 22c-25,433 44,825 199,1104 126,228 314,375 558,389 154,9 245,-26 309,-96 101,-113 194,-332 308,-614 88,-217 255,-359 447,-428 91,-33 190,-47 290,-45 100,2 198,22 287,59zm-4942 32809c1779,35 3357,529 4113,1030 288,191 444,473 487,769 20,138 14,282 -17,420 -31,139 -86,271 -163,388 -159,240 -409,419 -733,466 -588,85 -1049,160 -1353,321 -250,132 -411,351 -486,747l0 1c-108,572 117,1084 555,1491 483,448 1215,776 2066,936l2 0c835,157 1636,38 2255,-282 588,-303 1007,-787 1118,-1380l1 0 1 -5c209,-1037 -195,-1981 -903,-2756 -906,-992 -2296,-1706 -3573,-2004 -1066,-249 -2233,-293 -3371,-142zm4336 -8162c1201,183 2212,584 2737,967 253,185 383,447 410,715 13,129 2,258 -31,379 -33,122 -89,239 -165,344 -154,212 -388,364 -684,393 -500,49 -891,94 -1149,216 -202,95 -338,265 -412,580 -109,464 56,891 400,1241 387,393 989,696 1699,863l1 0c695,164 1371,95 1901,-149 497,-228 861,-612 975,-1095l2 -5c214,-859 -88,-1663 -650,-2338 -727,-872 -1875,-1529 -2944,-1831 -660,-186 -1371,-279 -2089,-282zm4376 -8952c920,-43 1719,75 2197,263 276,109 458,319 547,560 41,112 61,233 60,355 -1,124 -24,245 -67,355 -91,231 -270,427 -536,525 -430,158 -764,287 -959,449 -149,124 -226,298 -219,584 10,421 248,751 624,977 428,256 1027,384 1689,369l8 -2 0 1c639,-16 1210,-230 1617,-563 381,-311 611,-726 601,-1169l-2 -8 2 0c-9,-793 -456,-1425 -1101,-1887 -841,-602 -2001,-919 -3010,-939 -475,-10 -965,35 -1451,129zm1096 -10277c577,-227 1100,-343 1471,-351 279,-6 514,110 680,287 79,85 142,183 185,286 43,105 68,219 70,335 5,234 -79,470 -274,653 -299,279 -529,502 -634,704 -76,147 -78,309 23,534l0 0c151,335 455,521 836,574 442,63 981,-40 1522,-283l0 0c524,-236 923,-610 1142,-1025 203,-385 249,-801 89,-1157l-32 -71c-292,-608 -862,-954 -1530,-1105 -907,-206 -1981,-62 -2826,274 -245,97 -486,213 -722,346zm-9625 -650c371,8 894,125 1471,351 -236,-133 -478,-249 -722,-346 -845,-336 -1919,-480 -2826,-274 -667,151 -1238,497 -1530,1105l-32 71c-160,357 -114,773 89,1157 220,415 618,790 1142,1025l0 0c542,243 1080,346 1522,283 381,-54 685,-239 836,-574l0 0c101,-225 98,-387 23,-534 -105,-203 -335,-425 -634,-704 -196,-183 -280,-419 -274,-653 3,-116 27,-230 70,-335 43,-104 105,-201 185,-286 166,-177 400,-293 680,-287zm-2893 7595c515,12 1301,215 2135,614 -414,-277 -850,-510 -1294,-687 -938,-373 -2131,-533 -3140,-304 -748,169 -1387,558 -1715,1242l-35 78c-182,405 -131,877 99,1311 246,465 692,885 1279,1149l2 1c603,271 1204,385 1699,315 433,-61 781,-273 953,-657l0 0c117,-261 113,-450 24,-624 -118,-229 -375,-477 -707,-787 -206,-193 -295,-442 -289,-689 3,-122 29,-243 74,-354 45,-110 111,-213 195,-303 175,-187 423,-310 719,-303zm-5270 7458c651,15 1699,311 2766,897 -572,-436 -1194,-794 -1832,-1048 -1032,-410 -2343,-586 -3453,-334 -857,194 -1586,649 -1937,1459l-2 5c-204,454 -147,981 110,1466 273,515 766,980 1414,1271l1 1c666,299 1330,425 1878,348 486,-69 876,-307 1071,-740l0 0c133,-297 128,-514 25,-714 -132,-256 -415,-528 -781,-871 -217,-203 -310,-465 -305,-725 3,-129 30,-256 79,-374 48,-116 118,-226 206,-320 185,-197 446,-327 758,-320zm-5574 8034c908,21 2489,517 3970,1506 -849,-776 -1833,-1408 -2851,-1812 -1218,-484 -2768,-692 -4080,-394 -1022,232 -1893,776 -2313,1746l-2 5c-247,551 -180,1189 130,1774 326,616 914,1171 1688,1518l0 0c791,355 1581,505 2235,412 592,-84 1068,-375 1306,-906 166,-369 158,-641 28,-894 -159,-308 -494,-632 -927,-1037 -239,-223 -341,-512 -335,-798 3,-142 33,-283 87,-413 53,-129 130,-250 228,-354 204,-218 492,-360 836,-352zm3391 11976l32 26c-1192,-1312 -2703,-2385 -4280,-3012 -1493,-594 -3392,-847 -5001,-483 -1266,287 -2344,962 -2866,2168l-2 5c-312,694 -227,1494 160,2227 404,764 1132,1451 2089,1881l1 0c974,437 1949,621 2758,507 747,-106 1348,-475 1650,-1148l0 0c213,-475 202,-828 32,-1158 -199,-386 -611,-784 -1143,-1281 -271,-253 -387,-580 -379,-904 4,-162 38,-322 99,-471 60,-147 148,-285 260,-404 231,-248 560,-410 950,-401 1270,29 3637,834 5639,2449z"/></g></svg>