<svg xmlns="http://www.w3.org/2000/svg" xmlns:xlink="http://www.w3.org/1999/xlink" data-name="Layer 1" viewBox="0 0 100 125" x="0px" y="0px"><defs><style>.cls-1{fill:none;}.cls-2{clip-path:url(#a);}</style><clipPath id="a"><rect class="cls-1" x="-6.8" y="109.6" width="115.1" height="116.9"/></clipPath></defs><path d="M82.7,11s-5.4-2.1-9.3-3.1C62.5,5,53.3,3.5,38.3,8.3S9.8,25,14.9,37.8c3.5,8.7,15.9,6.6,19.2,2s-2.7-9.7-5.4-7-1,5.1,1.8,5.1a4.8,4.8,0,0,1-3.1,1c-3.4,0-9.1-3-6.5-11a10.5,10.5,0,0,1,1.4-2.8c4.3,2,10.2,4.1,16.3,4,9.6-.1,17.9-4.2,17.3-11.9-.3-3.3-3.3-4.9-6.1-5.1a45.8,45.8,0,0,1,15.3.3,41.3,41.3,0,0,1,5.1,1.5C65,17.6,58,22.4,46.6,30.7c-23,16.7-32.7,38.5-32.7,38.5l-.3,27.7c.3-5.1,3.2-16,6.3-21.7,0,0,9.7-21.8,32.7-38.6L75.1,20.3c.2,1.4-.3,5.8-.8,9.3-.8,5.9-.8,7.4-2.4,13.8.4-3.7-1-7.9-5.4-9.2C56.1,31,47.9,41.4,44.9,54.6c-2.3,10.1-.3,20.8,1.7,27.3a14.9,14.9,0,0,1-3.7,1.3c-11.2,2.7-14.1-6.5-13.3-11.1a5.4,5.4,0,0,1,2.1-3.3c-1.5,4.4,3.7,6.5,6.2,3.7s.8-10.7-7.1-9.2-10.4,16-1,25.1c6,5.8,17.7,3,27.8-6A69.5,69.5,0,0,0,73,61.7c7.6-16,7.8-24.8,9.1-36.7C82.7,18.8,82.7,11,82.7,11Zm-35,6.6a1.6,1.6,0,0,0-.1-3,2.3,2.3,0,0,1,1.8,0c1.9.6,4.4,3.1,1.7,6.9s-18,5.6-26.1,1c-.1,0-.2,0-.2-.1,4.8-4.4,13.1-8,21.8-9.8L46,13C42.9,15.4,45.9,18.6,47.7,17.6Zm3.5,61.3-1.3-3.4C46,62.9,51.3,42.9,59.1,39.6c6.2-2.7,8.9,1.6,9.2,4.3a3.7,3.7,0,0,1-.6,2.6c-.2-2.3-2.7-2.8-4.2-1.1s1.7,7.3,6,3.7a6.2,6.2,0,0,0,1.7-2.6,63.1,63.1,0,0,1-4.6,12.3C62.5,67.2,56.9,74.4,51.2,78.9Z"/></svg>