<svg xmlns="http://www.w3.org/2000/svg" data-name="Layer 1" viewBox="0 0 100 125" x="0px" y="0px"><path d="m51.7371796,94.619873c-1.0117187,0-2.0341797-.0273438-3.0678711-.0830078-24.8022461-1.3359375-42.8041992-20.484375-42.8041992-45.53125C5.8651093,24.9504395,25.4354218,5.380127,49.4910859,5.380127c9.6269531,0,18.7539062,3.0742188,26.3964844,8.8896484.7939453.6044922,1.0214844,1.7006836.5332031,2.5708008-.4882812.8691406-1.5390625,1.2490234-2.4716797.8837891-9.71875-3.7958984-19.9794922-3.3022461-28.1518555,1.3564453-7.0253906,4.0048828-11.7543945,10.5751953-12.9736328,18.0253906-1.3178711,8.0566406.0009766,14.7578125,3.9213867,19.9189453,4.3813477,5.7695312,10.7558594,7.8808594,13.8320312,8.21875,6.8730469.7548828,11.40625-1.6669922,13.9863281-3.8339844,3.0839844-2.5898438,5.0595703-6.2265625,5.2841797-9.7275391.2353516-3.6669922-.859375-6.7773438-3.0810547-8.7597656-2.0263672-1.8056641-4.8105469-2.5576172-7.6523438-2.078125-1.9472656.5932617-2.9423828,1.6376953-3.2226562,3.3754883-.1494141.9272461.1748047,1.9355469.8476562,2.6323242.4736328.4907227,1.3320312,1.0366211,2.7294922.8647461.4443359-.0556641,1.3896484-.6064453,1.6298828-1.1293945.3896484-.8481445,1.3134766-1.3105469,2.2255859-1.1230469.9130859.190918,1.5732422.9873047,1.5917969,1.9199219.0576172,3.0112305-1.1582031,5.8974609-3.3339844,7.9199219-2.3193359,2.1533203-5.4736328,3.1708984-8.9042969,2.8466797-6.8564453-.6367188-12.2280273-6.7226562-12.2280273-13.8540039v-1.3183594c-.1264648-5.7973633,2.2246094-11.2490234,6.6210938-15.3061523,4.8500977-4.4755859,11.730957-6.7392578,18.3852539-6.0600586,8.7011719.8896484,16.6806641,5.1220703,21.3447266,11.3217773.0996094.1318359.1806641.2739258.2441406.4228516,5.9521484,8.1015625,8.1240234,17.0253906,6.6386719,27.2636719-2.9960938,20.6318359-19.6787109,33.9990234-41.9462891,33.9990234Zm-2.2460937-85.2397461c-21.8496094,0-39.6259766,17.7758789-39.6259766,39.6254883,0,22.8505859,16.4101562,40.3193359,39.019043,41.5371094,21.6186523,1.1591797,38.0239258-11.0908203,40.840332-30.4960938,1.3496094-9.296875-.6699219-17.3701172-6.1708984-24.6816406-.0927734-.1225586-.1689453-.253418-.2304688-.390625-4.0449219-5.1264648-10.8369141-8.6220703-18.2734375-9.3823242-5.5351562-.5673828-11.2460938,1.3105469-15.2661133,5.0200195-3.5415039,3.2685547-5.4360352,7.6450195-5.3344727,12.3232422l.0004883,1.3618164c0,5.6791992,4.3720703,9.4790039,8.5981445,9.871582,2.2783203.2099609,4.3388672-.4267578,5.8115234-1.7949219.2167969-.2021484.4179688-.4150391.6025391-.6396484-2.1748047.1386719-4.1464844-.5976562-5.6015625-2.1040039-1.5517578-1.6088867-2.2685547-3.8691406-1.9179688-6.046875.3720703-2.3041992,1.7402344-5.3208008,6.1513672-6.6083984.0673828-.0195312.1367188-.0356445.2060547-.0483398,4.0957031-.737793,8.1552734.3583984,11.1289062,3.0107422,3.1601562,2.8183594,4.7265625,7.0805664,4.4111328,12.0009766-.2929688,4.5693359-2.7988281,9.2558594-6.7041016,12.5351562-3.1777344,2.6689453-8.7050781,5.6601562-16.9960937,4.7470703-4.6083984-.5068359-11.7158203-3.3710938-16.5800781-9.7753906-4.6098633-6.0693359-6.1855469-13.8027344-4.6831055-22.984375,1.4150391-8.6479492,6.8603516-16.2495117,14.9399414-20.8549805,5.2998047-3.0205078,11.375-4.5068359,17.6054687-4.4082031-3.8144531-1.2011719-7.8222656-1.8173828-11.9306641-1.8173828Z" stroke-width="0"/></svg>