<svg xmlns="http://www.w3.org/2000/svg" data-name="Layer 1" viewBox="0 0 100 125" x="0px" y="0px"><path d="m19.6457911,21.7955364c.109375.2578125.2460938.5786133.5429688,1.0043945.3544922.5087891.9248047.8242188,1.5444336.8540039.0322266.0014648.0644531.0024414.0961914.0024414.5849609,0,1.1425781-.2563477,1.5234375-.7041016,1.8037109-2.1206055,4.3398438-3.7167969,6.3476562-4.8706055,2.2001953-1.2641602,4.5419922-2.140625,6.9604492-2.6040039.5976562-.1147461,1.1108398-.4951172,1.394043-1.0336914.2832031-.5390625.3056641-1.1772461.0610352-1.734375-.0478516-.1088867-.0976562-.2172852-.1479492-.3227539-1.3764648-2.8754883-4.4140625-5.4165039-7.7397461-6.4726562-2.5478516-.8100586-4.9995117-.6704102-6.9033203.3925781-4.4145508,2.4638672-6.2973633,10-3.8007812,15.215332.0507812.1064453.0878906.1943359.121582.2734375Zm5.6289062-11.9960938c.487793-.2724609,1.0859375-.4086914,1.7592773-.4086914.6083984,0,1.2783203.1118164,1.9829102.3354492,1.5126953.4804688,2.9638672,1.4145508,4.0366211,2.5410156-1.8432617.5766602-3.6328125,1.3618164-5.3461914,2.3466797-1.5581055.8950195-3.4042969,2.034668-5.1191406,3.4882812-.6083984-3.15625.5405273-7.1049805,2.6865234-8.3027344Z" stroke-width="0"/><path d="m88.5232325,41.5177044c-1.7050781-6.8867188-5.8251953-12.956543-11.6025391-17.0917969-5.4609375-3.9101562-12.1308594-5.8774414-18.8056641-5.5478516-8.6567383-4.5830078-18.4458008-4.6791992-26.9501953-.2431641-9.5761719,4.9941406-15.3154297,14.4672852-15.4384766,25.421875-3.0576172,5.0449219-4.5361328,10.8217773-4.2797852,16.746582.3071289,7.0957031,3.1391602,13.8632812,7.9750977,19.0556641.3867188.4150391.9204102.6367188,1.4638672.6367188.2744141,0,.5517578-.0566406.8134766-.1728516.7802734-.3476562,1.253418-1.1523438,1.1782227-2.0039062-1.2714844-14.3447266,2.6967773-22.4199219,5.2094727-26.0068359,2.6894531-4.097168,7.2124023-6.6699219,12.0996094-6.8818359,8.4018555-.3671875,15.5351562,6.1767578,15.9003906,14.5791016.0683594,1.5908203-.1074219,3.1640625-.5224609,4.6826172-.0351562.0664062-.0673828.1357422-.0947266.2080078-1.0087891,2.5683594-2.8183594,2.7226562-4.0878906,2.6113281-2.3642578-.2011719-3.9541016-1.7695312-4.050293-3.9960938-.0419922-.96875.2958984-1.8955078.9511719-2.6103516.6557617-.7148438,1.550293-1.1318359,2.519043-1.1738281.5097656-.0214844,1.0136719.0615234,1.4882812.2490234.8886719.3505859,1.8916016.0273438,2.4111328-.7695312.5175781-.796875.4042969-1.8486328-.2734375-2.515625-2.5009766-2.4648438-5.9545898-3.7929688-9.449707-3.6376953-6.8999023.2978516-12.2280273,5.9384766-12.1303711,12.8417969.0053711.3554688.1049805.703125.2885742,1.0068359,2.2680664,3.75,6.515625,8.7871094,13.8720703,11.4912109.1508789.0556641.3076172.0908203.4667969.1064453,8.5698242,2.4873047,15.0180664-.1552734,18.1157227-1.9707031.265625-.1552734.4912109-.3701172.6601562-.6259766,3.4619141-5.2636719,5.1474609-11.3808594,4.8740234-17.6894531-.6855469-15.8339844-13.6445312-28.2905273-29.284668-28.5698242,2.496582-1.1010742,5.1967773-1.7382812,7.9750977-1.8588867,6.140625-.2641602,11.9316406,1.9379883,16.34375,6.2021484.4521484.4375,1.078125.6298828,1.6845703.5400391,5.7617188,1.3955078,11.6474609,4.4345703,17.5019531,9.0395508.671875.527832,1.6035156.5708008,2.3212891.1079102.7177734-.4638672,1.0615234-1.331543.8564453-2.1606445Zm-19.9667969-10.9287109c-.0878906-.034668-.1787109-.0629883-.2705078-.0844727-5.1220703-4.6342773-11.7080078-7.0112305-18.6435547-6.7119141-6.4365234.2788086-12.5180664,2.9091797-17.1240234,7.40625-.6518555.6367188-.7910156,1.6337891-.3383789,2.4248047.453125.7915039,1.3842773,1.1777344,2.2626953.9355469,1.8608398-.5078125,3.7866211-.8081055,5.7236328-.8920898,14.2719727-.6079102,26.3452148,10.4755859,26.9624023,24.7241211.2304688,5.3056641-1.1386719,10.453125-3.9628906,14.9189453-2.7099609,1.4863281-7.9365234,3.3720703-14.8520508,1.2695312-.0795898-.0234375-.1601562-.0419922-.2416992-.0556641-5.7719727-2.2148438-9.2509766-6.1259766-11.2167969-9.2109375.2006836-4.4804688,3.75-8.0634766,8.2954102-8.2597656.4838867-.0224609.9599609-.0039062,1.4287109.0527344-.4482422.3154297-.8652344.6816406-1.2446289,1.0947266-1.3779297,1.5029297-2.0878906,3.4511719-1.9995117,5.4873047.1826172,4.2275391,3.3520508,7.4384766,7.706543,7.8095703,3.5439453.2978516,6.3857422-1.3349609,7.8828125-4.5146484.1386719-.1816406.2480469-.3896484.3183594-.6191406.6533203-2.109375.9355469-4.3046875.8398438-6.5273438-.4609375-10.6069336-9.4863281-18.8774414-20.0693359-18.4023438-6.1689453.2675781-11.8779297,3.5136719-15.2363281,8.6323242-2.3676758,3.378418-5.9477539,10.3774414-6.1357422,21.9487305-1.9165039-3.4716797-3.0249023-7.3671875-3.1987305-11.3857422-.2294922-5.3007812,1.144043-10.4638672,3.972168-14.9316406.2050781-.3242188.3125-.7001953.3100586-1.0839844-.0678711-9.6713867,4.9003906-18.0571289,13.2895508-22.4321289,7.4643555-3.8920898,16.0957031-3.71875,23.6806641.4755859.3369141.1865234.7216797.269043,1.1035156.2456055,5.9609375-.4086914,11.9257812,1.2895508,16.7939453,4.7753906,3.2705078,2.3408203,5.9277344,5.3974609,7.7880859,8.8994141-4.6064453-2.9008789-9.2363281-4.9082031-13.8242188-5.9887695Z" stroke-width="0"/><path d="m49.7434474,84.7564739c-.1323242-.8378906-.2441406-1.6904297-.3325195-2.5332031-.0844727-.8037109-.644043-1.4775391-1.4179688-1.7080078-4.0761719-1.2138672-7.7509766-3.2910156-10.9223633-6.171875-.5053711-.4599609-1.2119141-.6279297-1.8730469-.4482422-.6601562.1806641-1.1821289.6865234-1.3833008,1.3408203-.8666992,2.8164062-.84375,5.8798828.0668945,8.8574219,1.6303711,5.3310547,7.5014648,10.5126953,12.9536133,10.5126953.7763672,0,1.5454102-.1054688,2.2910156-.3300781.3803711-.1162109.7539062-.2587891,1.1108398-.4267578.9077148-.4248047,1.3598633-1.4560547,1.0581055-2.4121094-.6611328-2.0966797-1.1831055-4.3447266-1.5512695-6.6806641Zm-12.0371094-1.8330078c-.3354492-1.0957031-.5078125-2.2265625-.5175781-3.3359375,2.5717773,1.8652344,5.3818359,3.3232422,8.3969727,4.3564453.0625.4804688.1313477.9599609.206543,1.4355469.2817383,1.7871094.6474609,3.5302734,1.0922852,5.2060547-3.0200195-.0351562-7.7524414-2.9990234-9.1782227-7.6621094Z" stroke-width="0"/><path d="m73.9958888,48.4508099c-.6738281-.1035156-1.3583984.1538086-1.8046875.671875-.4472656.5180664-.5986328,1.2290039-.4013672,1.8837891,1.2373047,4.1035156,1.53125,8.3144531.8740234,12.5146484-.125.7988281.2421875,1.59375.9316406,2.015625.7285156.4453125,1.4492188.9130859,2.1435547,1.3886719,1.9501953,1.3378906,3.7548828,2.7753906,5.3642578,4.2744141.3828125.3574219.8720703.5371094,1.3632812.5371094.4492188,0,.8984375-.1503906,1.2675781-.453125.3056641-.25.5966797-.5273438.8671875-.8242188,4.1992188-4.6220703,2.0595703-13.8378906-2.6376953-18.1396484-2.296875-2.1020508-5.0517578-3.4399414-7.9677734-3.8691406Zm8.2353516,18.4013672c-1.3212891-1.1220703-2.7373047-2.2021484-4.2304688-3.2255859-.3945312-.2705078-.7978516-.5390625-1.2060547-.8037109.3642578-3.1660156.2558594-6.3291016-.3212891-9.4541016.9980469.4863281,1.9433594,1.1279297,2.7890625,1.9013672,3.5976562,3.2949219,4.2363281,8.8427734,2.96875,11.5820312Z" stroke-width="0"/></svg>